<svg xmlns="http://www.w3.org/2000/svg" viewBox="-3 -3 86 80" width="86" height="80">
  <defs>
    <clipPath id="bub"><rect x="6" y="6" width="68" height="48" rx="12"/></clipPath>
  </defs>
  <path d="M16 0 H64 Q80 0 80 16 V44 Q80 60 64 60 H50 L40 74 L30 60 H16 Q0 60 0 44 V16 Q0 0 16 0 Z" fill="none" stroke="#14406F" stroke-width="5" stroke-linejoin="round"/>
  <g clip-path="url(#bub)">
    <circle cx="57" cy="21" r="6" fill="#14406F"/>
    <path d="M6 36 Q16 29 26 36 T46 36 T66 36 T86 36" fill="none" stroke="#14406F" stroke-width="4" stroke-linecap="round"/>
    <path d="M6 46 Q16 39 26 46 T46 46 T66 46 T86 46" fill="none" stroke="#14406F" stroke-width="4" stroke-linecap="round"/>
  </g>
</svg>
